# xmcd
#
# Track frame offsets:
#	150
#	11970
#	24087
#	38387
#	48132
#	63450
#	79737
#	94745
#	106737
#	124000
#	137190
#	146320
#	159360
#	172057
#	182422
#	197702
#	216940
#	233130
#
# Disc length: 3317 seconds
#
# Revision: 1
# Processed by: cddbd v1.5.1PL0 Copyright (c) Steve Scherf et al.
# Submitted via: CDex 1.50Beta5
#
DISCID=e40cf312
DTITLE=サウンドトラック - 映画音楽2
DYEAR=1900
DGENRE=
TTITLE0=いそしぎ
TTITLE1=悲しみは星影とともに
TTITLE2=個人教授
TTITLE3=オリバー
TTITLE4=2001年宇宙の旅
TTITLE5=ガラスの部屋
TTITLE6=黒いジャガー
TTITLE7=小さな恋のメロディー
TTITLE8=マイウェイー
TTITLE9=ポセイドンアドベンチャー
TTITLE10=燃えよドラゴン
TTITLE11=エマニュエル婦人
TTITLE12=ヨークニューヨーク
TTITLE13=スーパーマン
TTITLE14=ランボーのテーマ
TTITLE15=愛と青春の旅立ち
TTITLE16=フットロース
TTITLE17=バットマン
EXTD=
EXTT0=
EXTT1=
EXTT2=
EXTT3=
EXTT4=
EXTT5=
EXTT6=
EXTT7=
EXTT8=
EXTT9=
EXTT10=
EXTT11=
EXTT12=
EXTT13=
EXTT14=
EXTT15=
EXTT16=
EXTT17=
PLAYORDER=
